<svg xmlns="http://www.w3.org/2000/svg" width="30" height="30" viewBox="0 0 30 30">
  <defs>
    <style>
      .cls-1 {
        fill: #444;
        fill-rule: evenodd;
      }
    </style>
  </defs>
  <path id="icon" class="cls-1" d="M285,767a15,15,0,1,1,15-15A15,15,0,0,1,285,767Zm0-27.5A12.5,12.5,0,1,0,297.5,752,12.5,12.5,0,0,0,285,739.5Zm5.738,20.006L285,753.768l-5.738,5.738-1.768-1.768L283.232,752l-5.738-5.738,1.768-1.768L285,750.232l5.738-5.738,1.768,1.768L286.768,752l5.738,5.738Z" transform="translate(-270 -737)"/>
</svg>
