<?xml version="1.0" encoding="utf-8"?><svg viewBox="0 0 30 30" xmlns="http://www.w3.org/2000/svg" xmlns:xlink="http://www.w3.org/1999/xlink"><style>:root>svg{display:none}:root>svg:target{display:block}</style><svg viewBox="0 0 10 10" id="ico_close" xmlns="http://www.w3.org/2000/svg"><path d="M8.829 10L5.005 6.174 1.181 10 0 8.825 3.827 5 0 1.174 1.181 0l3.824 3.825L8.829 0l1.177 1.178L6.183 5l3.823 3.825z"/></svg><svg viewBox="0 0 30 30" id="ico_close-circle" xmlns="http://www.w3.org/2000/svg"><defs><style>.bcls-1{fill:#444;fill-rule:evenodd}</style></defs><path id="bicon" class="bcls-1" d="M285 767a15 15 0 1115-15 15 15 0 01-15 15zm0-27.5a12.5 12.5 0 1012.5 12.5 12.5 12.5 0 00-12.5-12.5zm5.738 20.006L285 753.768l-5.738 5.738-1.768-1.768 5.738-5.738-5.738-5.738 1.768-1.768 5.738 5.738 5.738-5.738 1.768 1.768-5.738 5.738 5.738 5.738z" transform="translate(-270 -737)"/></svg><svg viewBox="0 0 18 18" id="ico_link" xmlns="http://www.w3.org/2000/svg"><path d="M9 9V0h9v9H9zm7.5-7.5h-6v6h6v-6zm-15 15h12v-6H15V18H0V3h7.5v1.5h-6v12z"/></svg></svg>